<?xml version="1.0" standalone="no"?>
<!DOCTYPE svg PUBLIC "-//W3C//DTD SVG 20010904//EN"
 "http://www.w3.org/TR/2001/REC-SVG-20010904/DTD/svg10.dtd">
<svg version="1.0" xmlns="http://www.w3.org/2000/svg"
 width="512.000000pt" height="512.000000pt" viewBox="0 0 512.000000 512.000000"
 preserveAspectRatio="xMidYMid meet">
<metadata>
Created by potrace 1.14, written by Peter Selinger 2001-2017
</metadata>
<g transform="translate(0.000000,512.000000) scale(0.100000,-0.100000)"
fill="#000000" stroke="none">
<path d="M4830 4939 c-58 -10 -123 -21 -145 -24 -22 -3 -51 -8 -65 -10 -25 -5
-76 -10 -180 -20 -30 -3 -71 -7 -90 -10 -19 -2 -78 -7 -130 -10 -52 -4 -120
-8 -150 -10 -77 -6 -403 -14 -745 -20 -159 -3 -317 -7 -350 -10 -33 -2 -112
-7 -175 -10 -63 -4 -122 -8 -131 -10 -10 -2 -49 -7 -86 -10 -88 -9 -315 -50
-418 -76 -183 -46 -447 -149 -578 -225 -32 -19 -60 -34 -63 -34 -9 0 -220
-144 -284 -194 -193 -151 -404 -363 -571 -574 -33 -40 -59 -75 -59 -78 0 -2
978 -4 2174 -4 l2175 0 -2 675 c-1 443 -5 675 -12 674 -5 0 -57 -9 -115 -20z"/>
<path d="M437 3162 c-10 -2 -21 -20 -28 -45 -6 -23 -23 -87 -39 -142 -24 -85
-48 -184 -66 -270 -20 -97 -50 -276 -59 -345 -2 -19 -6 -51 -9 -70 -3 -19 -8
-60 -12 -90 -3 -30 -7 -66 -9 -80 -2 -14 -6 -67 -10 -118 l-6 -92 2249 0 2250
0 10 28 c20 49 94 317 106 382 2 14 9 45 15 70 10 47 16 77 27 145 3 22 7 42
9 45 2 3 6 23 9 45 3 22 12 87 20 145 16 112 22 171 32 290 4 41 8 78 10 82 3
4 -1 10 -8 14 -12 8 -4454 13 -4491 6z"/>
<path d="M177 1456 c-6 -18 -11 -311 -11 -681 -1 -324 8 -587 20 -607 3 -5 47
-6 97 -3 156 9 360 15 672 20 355 6 701 14 823 20 172 8 298 16 332 20 19 3
64 7 100 10 36 3 97 10 135 15 39 5 90 12 115 15 38 5 106 17 240 42 113 21
359 86 435 116 17 6 35 12 40 13 32 6 194 75 320 136 150 72 343 196 490 316
89 72 299 280 360 357 22 28 43 52 46 55 9 7 119 158 119 163 0 2 -974 3
-2165 3 -1527 0 -2165 -3 -2168 -10z"/>
</g>
</svg>
